<svg xmlns="http://www.w3.org/2000/svg" width="500" height="500" viewBox="0 0 500 500" fill="none"><metadata><rdf:RDF xmlns:rdf="http://www.w3.org/1999/02/22-rdf-syntax-ns#" xmlns:dc="http://purl.org/dc/elements/1.1/"><rdf:Description><dc:creator>RealFaviconGenerator</dc:creator><dc:source>https://realfavicongenerator.net</dc:source></rdf:Description></rdf:RDF></metadata><rect width="500" height="500" rx="76.9231" fill="#00D492"></rect><path d="M217.824 227.258C222.054 227.258 225.173 231.208 224.188 235.323L207.763 304.163L203.508 322.013C203.073 323.833 201.883 325.378 200.238 326.263L103.213 378.368C98.3035 381.003 92.5535 376.693 93.7135 371.243L123.218 232.443C123.863 229.418 126.528 227.258 129.618 227.258H217.818H217.824Z" fill="#0A0A0A"></path><path d="M278.979 227.258C306.604 227.258 315.884 264.173 291.549 277.243L241.414 304.168H239.634L253.129 247.663C255.984 235.703 266.679 227.263 278.974 227.263L278.979 227.258Z" fill="#0A0A0A"></path><path d="M406.281 128.736L392.716 192.541C392.071 195.566 389.406 197.726 386.316 197.726H139.396C135.231 197.726 132.126 193.891 132.996 189.821L146.561 126.016C147.206 122.991 149.871 120.831 152.961 120.831H399.882C404.047 120.831 407.151 124.666 406.281 128.736Z" fill="#0A0A0A"></path></svg>